<svg width="44" height="44" viewBox="0 0 44 44" fill="none" xmlns="http://www.w3.org/2000/svg">
<rect width="44" height="44" fill="white"/>
<path d="M25.0193 31.3727C22.2385 30.3398 19.3783 30.181 16.7565 30.896C14.9291 31.3727 13.1812 32.3261 11.5922 33.5179L10.4799 34.4713L10.1621 34.7891L10.8772 35.4247C10.9566 35.4247 10.9566 35.5041 11.0361 35.5836C11.195 35.7425 11.3539 35.8219 11.5922 35.9808L12.0689 36.2986L12.5456 35.9014C12.6251 35.8219 12.784 35.663 12.9429 35.5836C14.373 34.3918 15.962 33.5973 17.6304 33.2001C19.7756 32.6439 22.0796 32.7234 24.3837 33.5973C26.2905 34.3124 30.1835 35.1863 34.8711 33.2001L35.03 33.1206L35.2683 32.8823C35.2683 32.8028 35.3478 32.8028 35.4273 32.7234C35.8245 32.2467 36.2218 31.77 36.5396 31.2138L38.1286 28.7509L35.5861 30.1809C31.852 32.2466 28.4356 32.6439 25.0193 31.3727Z" fill="#099250"/>
<path d="M14.1342 22.7923C16.2793 22.2362 18.5834 22.3156 20.8874 23.1896C23.4298 24.143 29.9448 25.4936 37.2542 18.8993L38.4459 17.7075L38.5254 17.6281L38.8432 17.3103L38.6843 16.913C38.6048 16.5952 38.4459 16.198 38.287 15.8007L37.8898 14.6884L37.0953 15.4829C37.0158 15.6418 36.8569 15.7213 36.698 15.8802C33.2022 19.4554 27.7996 23.1101 21.6025 20.8855C18.8217 19.8527 15.9615 19.6938 13.3397 20.4088C10.7973 21.1239 8.57267 22.4745 6.50697 24.3813V24.3019L5.31522 25.5731C5.31522 25.6525 5.23578 25.6525 5.15633 25.732L4.91797 25.9703L4.99742 26.2881C5.07687 26.6854 5.23577 27.0826 5.31522 27.4799L5.79192 28.7511L6.58643 27.7183C6.66588 27.5594 6.82477 27.4799 6.90422 27.321C8.57267 25.8114 10.8767 23.6663 14.1342 22.7923Z" fill="#099250"/>
<path d="M6.42782 21.3621C8.25517 19.4553 10.3209 18.2635 12.5455 17.6279C14.6906 17.0718 16.9947 17.1512 19.2987 18.0252C26.4492 20.647 32.6463 16.3567 35.3476 14.0527L36.3805 13.0198L36.7777 12.702L36.4599 12.2253C36.2216 11.987 36.0627 11.6692 35.8244 11.3514L35.3476 10.7158L34.7915 11.2719C34.712 11.3514 34.5531 11.5103 34.4737 11.5897C31.1368 14.7677 25.9725 18.0252 20.0932 15.8006C17.3125 14.7677 14.4523 14.6088 11.8304 15.3239C10.162 15.8006 8.57296 16.5951 6.98395 17.6279L5.3155 18.9786C5.1566 19.1375 5.07715 19.2169 4.91825 19.3758L4.75936 19.5347V19.7731C4.67991 20.3292 4.6799 20.8854 4.60045 21.3621L4.521 23.3483L5.87166 21.9182C6.03056 21.7593 6.18947 21.521 6.42782 21.3621Z" fill="#099250"/>
<path d="M27.3229 36.7754L27.164 37.2521L27.3229 36.7754C27.0846 36.696 26.9257 36.6165 26.6873 36.5371C23.9066 35.5042 21.0463 35.3453 18.4245 36.0604C17.8683 36.2193 17.3122 36.3782 16.7561 36.6165L14.8492 37.4905L14.3726 37.7288L15.9616 38.285C16.4383 38.4439 16.915 38.6028 17.3917 38.7617L17.63 38.8411L17.8684 38.7617C18.1067 38.6822 18.3451 38.5233 18.5834 38.5233C18.7423 38.5233 18.9012 38.4439 19.0601 38.3644C20.9669 37.8877 23.0326 37.8877 25.2572 38.6028C25.4956 38.6822 25.6545 38.7617 25.8928 38.8411L26.2901 39L26.5284 38.9206C27.0846 38.7617 27.7202 38.6028 28.1969 38.3644L30.4215 37.5699L28.1174 37.0138C27.8791 36.9343 27.5613 36.8549 27.3229 36.7754Z" fill="#099250"/>
<path d="M39.4787 20.3293L38.287 21.521C38.1281 21.6799 37.9692 21.8388 37.8103 21.9977C34.5529 25.0963 29.3092 28.4332 23.4298 26.2086C20.6491 25.1757 17.7889 25.0169 15.167 25.7319C12.7041 26.447 10.4795 27.7182 8.49321 29.625L7.46037 30.7373L7.14258 31.1345L7.46037 31.6112C7.69872 31.929 7.85763 32.1674 8.01653 32.4852L8.49321 33.2002L9.04938 32.4852C9.12883 32.4057 9.28772 32.2468 9.36717 32.1673C11.274 30.1016 13.3397 28.8304 15.7232 28.1948C17.8683 27.6387 20.1724 27.7181 22.4764 28.5921C24.4627 29.3071 26.5284 29.5455 28.5941 29.3072C32.2488 28.9099 35.9035 26.8442 38.6048 24.5402C38.7637 24.3813 38.9226 24.3018 39.0815 24.1429L39.3199 23.9045V23.6662C39.3199 23.1895 39.3993 22.6334 39.3993 22.1567L39.4787 20.3293Z" fill="#099250"/>
<path d="M9.28793 13.0201L9.04959 12.5433L9.28793 13.0201C9.76463 12.7817 10.3208 12.6228 10.7975 12.4639C12.9427 11.9077 15.2467 11.9872 17.5508 12.8611C19.0603 13.4173 20.5699 13.6556 22.2383 13.6556C25.5752 13.6556 28.9121 12.4639 32.0107 10.1598L33.2024 9.20643L33.5997 8.88864L32.8846 8.33248C32.6463 8.09413 32.3285 7.85579 32.0107 7.69688L31.534 7.37909L31.1367 7.69688C30.9778 7.77633 30.8984 7.93523 30.7395 8.01468C26.5286 11.1927 22.3178 12.0666 18.3453 10.5571C15.4851 9.52424 12.6248 9.28589 9.76463 10.1598C9.52628 10.2393 9.28793 10.3187 8.97013 10.3982L8.81125 10.4776L8.57288 10.716C8.57288 10.7954 8.49344 10.7954 8.41399 10.8749C8.09619 11.3516 7.69893 11.7488 7.38113 12.2255L5.87158 14.5296L8.33454 13.2584C8.73179 13.2584 9.04958 13.0995 9.28793 13.0201Z" fill="#099250"/>
<path d="M15.8027 7.61728L16.041 7.69673C17.0739 8.09398 18.6629 8.49123 20.6491 8.49123C22.7148 8.49123 24.7011 8.01453 26.6873 7.22003L29.1503 6.02828L27.4818 5.47214C27.0051 5.31324 26.5284 5.15434 25.9723 5.07489H25.7339L25.4956 5.15432C25.2572 5.23377 25.0189 5.39269 24.7805 5.47214C22.397 6.34609 20.0135 6.50499 17.7095 5.86939C17.4711 5.78994 17.2328 5.71048 16.9944 5.63103L16.7561 5.55157L16.5177 5.63103C16.041 5.78993 15.5643 5.94884 15.0876 6.18719L13.2603 6.98169L15.1671 7.53782C15.326 7.45837 15.5643 7.53783 15.8027 7.61728Z" fill="#099250"/>
</svg>
